<svg viewBox="0 0 64 64" xmlns="http://www.w3.org/2000/svg" fill-rule="evenodd" clip-rule="evenodd" stroke-linejoin="round" stroke-miterlimit="1.41"><ellipse cx="32.45" cy="32.15" rx="24.56" ry="21.8" fill="#edaf06"/><clipPath id="a"><ellipse cx="32.45" cy="32.15" rx="24.56" ry="21.8"/></clipPath><g clip-path="url(#a)"><ellipse cx="33.39" cy="31.03" rx="24.56" ry="21.8" fill="#fac940"/></g><circle cx="43.41" cy="28.4" r="5.66" fill="url(#b)"/><path d="M43.41 21.9c0 1.75.39 4.68 1.1 5.4.73.72 3.65 1.1 5.41 1.1-1.76 0-4.68.39-5.4 1.1-.72.73-1.1 3.65-1.1 5.41 0-1.76-.39-4.68-1.11-5.4-.72-.73-3.64-1.1-5.4-1.1 1.76 0 4.68-.4 5.4-1.11.72-.72 1.1-3.65 1.1-5.4z" fill="#fff"/><circle cx="21.54" cy="28.4" r="5.66" fill="url(#c)"/><path d="M21.54 21.9c0 1.75.39 4.68 1.1 5.4.72.72 3.65 1.1 5.41 1.1-1.76 0-4.68.39-5.4 1.1-.72.73-1.1 3.65-1.1 5.41 0-1.76-.4-4.68-1.11-5.4-.72-.73-3.65-1.1-5.4-1.1 1.75 0 4.68-.4 5.4-1.11.72-.72 1.1-3.65 1.1-5.4z" fill="#fff"/><path d="M39.76 34.26l.2.21a1.55 1.55 0 0 1-.02.41c0 .08-.02.15-.04.22a2.85 2.85 0 0 1-1.01 1.44 5.34 5.34 0 0 1-1.12.75 6.3 6.3 0 0 1-1.06.47 11.32 11.32 0 0 1-1.87.54l-.19.04a11.6 11.6 0 0 1-1.93.21h-.6a9.04 9.04 0 0 1-1.16-.07l-.2-.03a13.05 13.05 0 0 1-.73-.12l-.27-.06a13.93 13.93 0 0 1-1.18-.33l-.35-.13a10.04 10.04 0 0 1-1.05-.48 7.3 7.3 0 0 1-1.22-.85 4.38 4.38 0 0 1-.64-.75 2.19 2.19 0 0 1-.33-1.24v-.02l.2-.2.22.2a1.5 1.5 0 0 0 .1.39 2 2 0 0 0 .63.75l.23.17c.51.33 1.1.54 1.68.7a9.24 9.24 0 0 0 1.34.3l.62.08.24.03.41.04.44.03.76.04h.62l.22.01h.61a21.68 21.68 0 0 0 1.07-.05l.26-.02a13.58 13.58 0 0 0 2.54-.49 8.8 8.8 0 0 0 1.15-.49l.23-.13c.24-.16.47-.35.65-.58a1.41 1.41 0 0 0 .33-.74v-.02l.01-.02.2-.2zm2.19-17.54l3.98 1.08.47.36.07.59-.36.47-.59.08-3.98-1.08-.47-.36-.08-.59.37-.47c.2-.03.4-.13.59-.08zm-18.35.08l.36.47-.08.59-.46.36-3.99 1.08-.58-.08-.37-.47.08-.59.47-.36L23 16.72l.59.08z" fill="#2e0d19" fill-rule="nonzero"/><ellipse cx="50.59" cy="35.11" rx="3.85" ry="2.47" fill="#e6556e"/><ellipse cx="14.42" cy="35.11" rx="3.85" ry="2.47" fill="#e6556e"/><defs><radialGradient id="b" cx="0" cy="0" r="1" gradientUnits="userSpaceOnUse" gradientTransform="translate(43.41 28.4) scale(5.65728)"><stop offset="0%" stop-color="#1d1d1d"/><stop offset="100%"/></radialGradient><radialGradient id="c" cx="0" cy="0" r="1" gradientUnits="userSpaceOnUse" gradientTransform="translate(21.54 28.4) scale(5.65728)"><stop offset="0%" stop-color="#1d1d1d"/><stop offset="100%"/></radialGradient></defs></svg>